<?xml version="1.0" encoding="utf-8"?>
<!-- Generator: Adobe Illustrator 24.3.0, SVG Export Plug-In . SVG Version: 6.00 Build 0)  -->
<svg version="1.1" xmlns="http://www.w3.org/2000/svg" xmlns:xlink="http://www.w3.org/1999/xlink" x="0px" y="0px"
	 viewBox="0 0 100 100" style="enable-background:new 0 0 100 100;" xml:space="preserve">
<style type="text/css">
	.st0{fill:#B2B2AB;}
</style>
<g id="Layer_2">
</g>
<g id="Layer_1">
	<g>
		<path class="st0" d="M92.3,2.5h-62c-2.9,0-5.2,2.3-5.2,5.2v17.4H7.7c-2.9,0-5.2,2.3-5.2,5.2v62c0,2.9,2.3,5.2,5.2,5.2h62
			c2.9,0,5.2-2.3,5.2-5.2V74.9h17.5c2.9,0,5.2-2.3,5.2-5.2v-62C97.5,4.8,95.2,2.5,92.3,2.5z M64.5,87.2H12.8V35.5h12.3v34.3
			c0,2.9,2.3,5.2,5.2,5.2h34.2V87.2z M87.2,64.5H35.5V12.8h51.7V64.5z"/>
		<path class="st0" d="M46,43.9h10.1V54c0,0.7,0.6,1.2,1.2,1.2h7.8c0.7,0,1.2-0.6,1.2-1.2V43.9h10.1c0.7,0,1.2-0.6,1.2-1.2v-7.8
			c0-0.7-0.6-1.2-1.2-1.2h-9.9V23.4c0-0.7-0.6-1.2-1.2-1.2h-7.8c-0.7,0-1.2,0.6-1.2,1.2v10.1H46c-0.7,0-1.2,0.6-1.2,1.2v7.8
			C44.8,43.3,45.3,43.9,46,43.9z"/>
	</g>
</g>
</svg>
