<?xml version="1.0" encoding="utf-8"?>
<!-- Generator: Adobe Illustrator 24.3.0, SVG Export Plug-In . SVG Version: 6.00 Build 0)  -->
<svg version="1.1" id="Layer_1" xmlns="http://www.w3.org/2000/svg" xmlns:xlink="http://www.w3.org/1999/xlink" x="0px" y="0px"
	 viewBox="0 0 24 24.7" style="enable-background:new 0 0 24 24.7;" xml:space="preserve">
<style type="text/css">
	.st0{fill:#B2B2AB;}
</style>
<g>
	<path class="st0" d="M3.4,22.2c0.1,0,0.2,0,0.3,0l4.3-0.7c0.4-0.1,0.7-0.2,1-0.5L21.6,8.3c0.9-0.9,0.9-2.3,0-3.2l-2.9-2.9
		c-0.9-0.9-2.3-0.9-3.2,0L2.8,14.9c-0.3,0.3-0.4,0.6-0.5,1l-0.7,4.3c-0.2,1,0.5,1.9,1.4,2C3.2,22.2,3.3,22.2,3.4,22.2L3.4,22.2z
		 M3.4,20.7c-0.1,0-0.2,0-0.2-0.1c-0.1-0.1-0.1-0.1-0.1-0.2l0.6-3.6L7,20.1L3.4,20.7z M16.6,3.3c0.3-0.3,0.8-0.3,1.1,0l2.9,2.9
		c0.3,0.3,0.3,0.8,0,1.1L8.4,19.4l-3.9-3.9l9.2-9.2l1.5,1.5c0.3,0.3,0.8,0.3,1.1,0c0.3-0.3,0.3-0.8,0-1.1l-1.5-1.5L16.6,3.3z"/>
	<path class="st0" d="M21.9,17.5c-0.1,0-2.9-1.1-6.4,2.6c-2.1,2.2-5.6,1.3-5.7,1.3C9.4,21.4,9,21.6,8.9,22c-0.1,0.4,0.1,0.8,0.5,0.9
		c0.7,0.1,1.4,0.2,2,0.2c1.9,0.1,3.7-0.6,5.1-2c2.8-2.9,4.7-2.3,4.8-2.3c0.4,0.2,0.8,0,1-0.4C22.5,18.1,22.3,17.6,21.9,17.5z"/>
	<circle class="st0" cx="17.1" cy="8.7" r="0.8"/>
</g>
</svg>
