<?xml version="1.0" encoding="utf-8"?>
<!-- Generator: Adobe Illustrator 24.3.0, SVG Export Plug-In . SVG Version: 6.00 Build 0)  -->
<svg version="1.1" xmlns="http://www.w3.org/2000/svg" xmlns:xlink="http://www.w3.org/1999/xlink" x="0px" y="0px"
	 viewBox="0 0 100 108.5" style="enable-background:new 0 0 100 108.5;" xml:space="preserve">
<style type="text/css">
	.st0{fill:#B2B2AB;}
</style>
<g id="Layer_2">
</g>
<g id="Layer_1">
	<path class="st0" d="M94.8,45l-10.6-1.8c-0.6-1.9-1.4-3.7-2.3-5.5L88,29c0.9-1.3,0.8-3.1-0.3-4.2l-8.5-8.5C78.1,15.2,76.3,15,75,16
		l-8.7,6.2c-1.7-0.9-3.6-1.7-5.5-2.3L59.2,9.4c-0.3-1.6-1.6-2.7-3.2-2.7H44c-1.6,0-2.9,1.1-3.2,2.7L39,20c-1.9,0.6-3.7,1.4-5.5,2.3
		l-8.7-6.2c-1.3-0.9-3.1-0.8-4.2,0.3L12,24.9c-1.1,1.1-1.3,2.9-0.3,4.2l6.2,8.7c-0.9,1.7-1.7,3.6-2.3,5.5L5.2,45
		c-1.6,0.3-2.7,1.6-2.7,3.2v12c0,1.6,1.1,2.9,2.7,3.2l10.6,1.8c0.6,1.9,1.4,3.7,2.3,5.5l-6.2,8.7c-0.9,1.3-0.8,3.1,0.3,4.2l8.5,8.5
		c1.1,1.1,2.9,1.3,4.2,0.3l8.7-6.2c1.7,0.9,3.6,1.7,5.5,2.3l1.8,10.6c0.3,1.6,1.6,2.7,3.2,2.7h12c1.6,0,2.9-1.1,3.2-2.7L61,88.4
		c1.9-0.6,3.7-1.4,5.5-2.3l8.7,6.2c1.3,0.9,3.1,0.8,4.2-0.3l8.5-8.5c1.1-1.1,1.3-2.9,0.3-4.2L82,70.6c0.9-1.7,1.7-3.6,2.3-5.5
		l10.6-1.8c1.6-0.3,2.7-1.6,2.7-3.2V48.2C97.5,46.6,96.4,45.3,94.8,45z M50,71.3c-9.5,0-17.1-7.7-17.1-17.1
		c0-9.5,7.7-17.1,17.1-17.1s17.1,7.6,17.1,17.1S59.5,71.3,50,71.3z"/>
</g>
</svg>
