<?xml version="1.0" encoding="utf-8"?>
<!-- Generator: Adobe Illustrator 24.3.0, SVG Export Plug-In . SVG Version: 6.00 Build 0)  -->
<svg version="1.1" id="Layer_1" xmlns="http://www.w3.org/2000/svg" xmlns:xlink="http://www.w3.org/1999/xlink" x="0px" y="0px"
	 viewBox="0 0 1122 1126.6" style="enable-background:new 0 0 1122 1126.6;" xml:space="preserve">
<style type="text/css">
	.st0{fill:#A56363;stroke:#A56363;stroke-width:77;stroke-miterlimit:10;}
</style>
<path class="st0" d="M204.3,995.1c-19.2,0-38.4-7.3-53.1-22c-29.3-29.3-29.3-76.9,0-106.2l713.5-713.5c29.3-29.3,76.9-29.3,106.2,0
	s29.3,76.9,0,106.2L257.3,973.1C242.7,987.8,223.5,995.1,204.3,995.1L204.3,995.1z M917.8,995.1c-19.2,0-38.4-7.3-53.1-22
	L151.2,259.6c-29.3-29.3-29.3-76.9,0-106.2s76.9-29.3,106.2,0l713.5,713.5c29.3,29.3,29.3,76.9,0,106.2
	C956.2,987.8,937,995.1,917.8,995.1L917.8,995.1z"/>
</svg>
