<?xml version="1.0" encoding="utf-8"?>
<!-- Generator: Adobe Illustrator 24.3.0, SVG Export Plug-In . SVG Version: 6.00 Build 0)  -->
<svg version="1.1" id="Layer_1" xmlns="http://www.w3.org/2000/svg" xmlns:xlink="http://www.w3.org/1999/xlink" x="0px" y="0px"
	 viewBox="0 0 100 103" style="enable-background:new 0 0 100 103;" xml:space="preserve">
<style type="text/css">
	.st0{fill-rule:evenodd;clip-rule:evenodd;fill:#A56363;stroke:#A56363;stroke-width:2;stroke-miterlimit:10;}
</style>
<path class="st0" d="M64.2,12.3c-1.6-1.6-3.7-2.4-5.9-2.4H41.7l-0.6,0C38.9,10,37,11,35.6,12.5c-1.4,1.5-2.2,3.6-2.2,5.7
	c0,1.1,0.4,2.1,1.1,2.9c0.7,0.8,1.7,1.2,2.8,1.3c1.1,0.1,2.1-0.3,2.9-1c0.8-0.7,1.3-1.6,1.5-2.7l0-0.5h16.7l0,0.5
	c0.1,1.1,0.6,2,1.5,2.7c0.8,0.7,1.9,1,2.9,1c1.1-0.1,2.1-0.5,2.8-1.3c0.7-0.8,1.1-1.8,1.1-2.9C66.7,16,65.8,13.8,64.2,12.3z
	 M86.2,27.6c-0.8-0.7-1.8-1.1-2.9-1.1H16.7l-0.5,0c-1.1,0.1-2,0.6-2.7,1.5c-0.7,0.8-1,1.9-1,2.9c0.1,1.1,0.5,2.1,1.3,2.8
	c0.8,0.7,1.8,1.1,2.9,1.1H17L20.8,81l0,0.7c0.4,6.3,5.8,11.5,12.5,11.5h33.3l0.7,0c3.2-0.2,6.2-1.6,8.4-3.9c2.2-2.3,3.4-5.4,3.4-8.6
	L83,34.8h0.3l0.5,0c1.1-0.1,2-0.6,2.7-1.5c0.7-0.8,1-1.9,1-2.9S87,28.4,86.2,27.6z M40.9,47.4c1-0.2,2,0,2.9,0.5l0.4,0.3l0.4,0.3
	l5.4,5.4l5.4-5.4c0.7-0.7,1.8-1.2,2.8-1.2c1.1,0,2.1,0.3,2.9,1c0.8,0.7,1.3,1.7,1.4,2.7c0.1,1.1-0.2,2.1-0.9,2.9l-0.3,0.4l-5.4,5.4
	l5.4,5.4C62,66,62.5,67,62.5,68c0,1.1-0.3,2.1-1,2.9c-0.7,0.8-1.7,1.3-2.7,1.4c-1.1,0.1-2.1-0.2-2.9-0.9l-0.4-0.3L50,65.7l-5.4,5.4
	c-0.7,0.7-1.8,1.2-2.8,1.2c-1.1,0-2.1-0.3-2.9-1c-0.8-0.7-1.3-1.7-1.4-2.7c-0.1-1.1,0.2-2.1,0.9-2.9l0.3-0.4l5.4-5.4l-5.4-5.4
	c-0.7-0.7-1.2-1.7-1.2-2.7c-0.1-1,0.2-2,0.9-2.8C39,48.1,39.9,47.6,40.9,47.4z"/>
</svg>
