<?xml version="1.0" encoding="utf-8"?>
<!-- Generator: Adobe Illustrator 24.3.0, SVG Export Plug-In . SVG Version: 6.00 Build 0)  -->
<svg version="1.1" id="Layer_1" xmlns="http://www.w3.org/2000/svg" xmlns:xlink="http://www.w3.org/1999/xlink" x="0px" y="0px"
	 viewBox="0 0 91.6 69.6" style="enable-background:new 0 0 91.6 69.6;" xml:space="preserve">
<style type="text/css">
	.st0{fill:#B2B2AB;}
</style>
<path class="st0" d="M83.9,3.3H64.4c-2.4,0-4.5,1.4-5.5,3.5l-1,2.2H22.5c-3.1,0-5.8,2.3-6.2,5.4l-0.5,3.7h-8c-2.9,0-5.2,2.6-4.8,5.5
	l6,42.7h71.6l0,0l8.1-57.5C89,5.9,86.8,3.3,83.9,3.3z M82.3,20l-4.2,28.7l-3.7-26.3c-0.3-2.4-2.4-4.2-4.8-4.2H21.3
	c0.5-1.7,2.1-2.8,3.9-2.8h53C80.7,15.3,82.6,17.5,82.3,20z"/>
</svg>
