<?xml version="1.0" encoding="utf-8"?>
<!-- Generator: Adobe Illustrator 24.3.0, SVG Export Plug-In . SVG Version: 6.00 Build 0)  -->
<svg version="1.1" id="Layer_1" xmlns="http://www.w3.org/2000/svg" xmlns:xlink="http://www.w3.org/1999/xlink" x="0px" y="0px"
	 viewBox="0 0 84.2 86.2" style="enable-background:new 0 0 84.2 86.2;" xml:space="preserve">
<style type="text/css">
	.st0{display:none;}
	.st1{display:inline;}
	.st2{fill:#FFFFFF;}
	.st3{display:inline;fill:#FFFFFF;}
	.st4{display:inline;fill:none;stroke:#FFFFFF;stroke-miterlimit:10;}
	.st5{fill:#6EC965;}
</style>
<g class="st0">
	<circle class="st1" cx="42.1" cy="30.6" r="45"/>
</g>
<g class="st0">
	<g class="st1">
		<g>
			<path class="st2" d="M105.9,23.4c5.5,5.5,11,11,16.5,16.5c1.4,1.4,3.5-0.8,2.1-2.1c-5.5-5.5-11-11-16.5-16.5
				C106.7,19.9,104.5,22,105.9,23.4L105.9,23.4z"/>
		</g>
	</g>
	<g class="st1">
		<g>
			<path class="st2" d="M108,39.9c5.5-5.5,11-11,16.5-16.5c1.4-1.4-0.8-3.5-2.1-2.1c-5.5,5.5-11,11-16.5,16.5
				C104.5,39.2,106.7,41.3,108,39.9L108,39.9z"/>
		</g>
	</g>
	<path class="st3" d="M-132.4,28l-23.7-13.7c-2-1.2-4.5,0.3-4.5,2.6v27.3c0,2.3,2.5,3.8,4.5,2.6l23.7-13.7
		C-130.4,32-130.4,29.2-132.4,28z"/>
	<path class="st3" d="M-109.1,28l-23.7-13.7c-2-1.2-4.5,0.3-4.5,2.6v27.3c0,2.3,2.5,3.8,4.5,2.6l23.7-13.7
		C-107.1,32-107.1,29.2-109.1,28z"/>
	<path class="st3" d="M-39.7-28.9l-27.6-15.9c-2-1.2-4.5,0.3-4.5,2.6v31.9c0,2.3,2.5,3.8,4.5,2.6l27.6-15.9
		C-37.7-24.8-37.7-27.7-39.7-28.9z"/>
	<path class="st3" d="M-33.2-7.4h-4.4c-1.6,0-3-1.3-3-3v-31.7c0-1.6,1.3-3,3-3h4.4c1.6,0,3,1.4,3,3v31.7
		C-30.2-8.8-31.6-7.4-33.2-7.4z"/>
	<path class="st3" d="M-67.7,32.8l15.9,14.4c1.9,1.7,5,0.4,5-2.2V16.2c0-2.6-3.1-4-5-2.2l-15.9,14.4C-69,29.6-69,31.6-67.7,32.8z"/>
	<path class="st3" d="M-59.6,38.5h-8.7c-1.7,0-3-1.3-3-3v-9.8c0-1.7,1.3-3,3-3h8.7c1.7,0,3,1.3,3,3v9.8
		C-56.6,37.1-57.9,38.5-59.6,38.5z"/>
	<g class="st1">
		<g>
			<g>
				<path class="st2" d="M-33.3,16.7c7.5,8,7.5,19.7,0,27.7c-1.3,1.4,0.8,3.5,2.1,2.1c8.6-9.2,8.6-22.7,0-32
					C-32.5,13.2-34.6,15.3-33.3,16.7L-33.3,16.7z"/>
			</g>
		</g>
		<g>
			<g>
				<path class="st2" d="M-38,20.7c5.4,5.8,5.4,14,0,19.9c-1.3,1.4,0.8,3.5,2.1,2.1c6.5-7,6.5-17.1,0-24.1
					C-37.2,17.1-39.3,19.2-38,20.7L-38,20.7z"/>
			</g>
		</g>
		<g>
			<g>
				<path class="st2" d="M-42.6,24.6c3.2,3.5,3.3,8.5,0,12c-1.3,1.4,0.8,3.5,2.1,2.1c4.4-4.7,4.4-11.5,0-16.3
					C-41.8,21-43.9,23.2-42.6,24.6L-42.6,24.6z"/>
			</g>
		</g>
	</g>
	<path class="st4" d="M-99.9,16.9c7.2,0,13,5.8,13,13s-5.8,13-13,13"/>
</g>
<g>
	<path class="st5" d="M72.7,40.5L14.5,6.9c-2-1.2-4.5,0.3-4.5,2.6v67.2c0,2.3,2.5,3.8,4.5,2.6l58.2-33.6
		C74.7,44.5,74.7,41.7,72.7,40.5z"/>
</g>
<g class="st0">
	<path class="st1" d="M31.8,63.6H16.1c-1.6,0-3-1.4-3-3v-60c0-1.7,1.4-3,3-3h15.7c1.6,0,3,1.3,3,3v60C34.8,62.2,33.4,63.6,31.8,63.6
		z"/>
	<path class="st1" d="M67.8,63.6H52.2c-1.7,0-3-1.4-3-3v-60c0-1.7,1.3-3,3-3h15.7c1.7,0,3,1.3,3,3v60C70.8,62.2,69.5,63.6,67.8,63.6
		z"/>
</g>
<g class="st0">
	<g class="st1">
		<path d="M58.9,52.1h-8.1c-1.7,0-3-1.3-3-3v-37c0-1.6,1.3-3,3-3h8.1c1.7,0,3,1.4,3,3v37.1C61.9,50.8,60.6,52.1,58.9,52.1z"/>
		<path d="M82.5,52.1h-8.1c-1.7,0-3-1.3-3-3v-37c0-1.6,1.3-3,3-3h8.1c1.7,0,3,1.4,3,3v37.1C85.5,50.8,84.1,52.1,82.5,52.1z"/>
		<path d="M38.1,28L3.2,7.9c-2-1.2-4.5,0.3-4.5,2.6v40.3c0,2.3,2.5,3.8,4.5,2.6l34.9-20.2C40.1,32,40.1,29.2,38.1,28z"/>
	</g>
</g>
<g class="st0">
	<path class="st1" d="M69.8,61.3H14.4c-1.7,0-3-1.3-3-3V2.9c0-1.7,1.3-3,3-3h55.4c1.7,0,3,1.3,3,3v55.4C72.8,60,71.5,61.3,69.8,61.3
		z"/>
</g>
<g class="st0">
	<circle class="st1" cx="42.1" cy="30.6" r="33.5"/>
</g>
<g class="st0">
	<path class="st1" d="M84.8,26.6L48,5.3c-3.1-1.8-7,0.4-7,4v12.8L11.8,5.3c-3.1-1.8-7,0.4-7,4v42.4c0,3.6,3.9,5.8,7,4L41,38.8v12.8
		c0,3.6,3.9,5.8,7,4l36.8-21C87.9,32.8,87.9,28.4,84.8,26.6z"/>
</g>
<g class="st0">
	<path class="st1" d="M-0.6,34.6l36.8,21.2c3.1,1.8,7-0.4,7-4V39l29.2,16.9c3.1,1.8,7-0.4,7-4V9.4c0-3.6-3.9-5.8-7-4L43.2,22.2V9.4
		c0-3.6-3.9-5.8-7-4L-0.6,26.6C-3.7,28.4-3.7,32.8-0.6,34.6z"/>
</g>
<g class="st0">
	<path class="st1" d="M66.6,1.3H66c-2.6,0-4.7,2.1-4.7,4.7v19.8l-41.4-24c-3.1-1.8-7,0.4-7,4v49.5c0,3.6,3.9,5.8,7,4l41.5-23.9v19.8
		c0,2.6,2.1,4.7,4.7,4.7h0.6c2.6,0,4.7-2.1,4.7-4.7V6C71.3,3.4,69.2,1.3,66.6,1.3z"/>
</g>
<g class="st0">
	<path class="st1" d="M17.6,59.9h0.6c2.6,0,4.7-2.1,4.7-4.7V35.4l41.5,23.9c3.1,1.8,7-0.4,7-4V5.9c0-3.6-3.9-5.8-7-4L22.8,25.8V6
		c0-2.6-2.1-4.7-4.7-4.7h-0.6c-2.6,0-4.7,2.1-4.7,4.7v49.3C12.9,57.8,15,59.9,17.6,59.9z"/>
</g>
<g class="st0">
	<path class="st1" d="M83.9,33.2L36.1,60.8c-2,1.2-4.5-0.3-4.5-2.6V3c0-2.3,2.5-3.8,4.5-2.6L83.9,28C85.9,29.2,85.9,32,83.9,33.2z
		 M24.3,56.9V4.3c0-1.6-1.4-3-3-3h-3.9c-1.6,0-3,1.4-3,3v52.6c0,1.7,1.4,3,3,3h3.9C23,59.9,24.3,58.5,24.3,56.9z"/>
</g>
<g class="st0">
	<path class="st1" d="M1,28L48.8,0.4c2-1.2,4.5,0.3,4.5,2.6v55.2c0,2.3-2.5,3.8-4.5,2.6L1,33.2C-1,32-1,29.2,1,28z M60.7,4.3v52.6
		c0,1.7,1.4,3,3,3h3.9c1.6,0,3-1.3,3-3V4.3c0-1.6-1.4-3-3-3h-3.9C62,1.3,60.7,2.7,60.7,4.3z"/>
</g>
<g class="st0">
	<path class="st1" d="M44.9,4.6v52c0,4.7-5.6,7.2-9.1,4L18.4,44.8H4.1c-3,0-5.4-2.4-5.4-5.4V21.8c0-3,2.4-5.4,5.4-5.4h14.3L35.8,0.6
		C39.3-2.6,44.9-0.1,44.9,4.6z M69.2,5.6c13.5,14.5,13.5,35.6,0,50.1c-2.4,2.5,1.4,6.4,3.8,3.8c15.6-16.7,15.6-41.1,0-57.8
		C70.6-0.8,66.8,3,69.2,5.6L69.2,5.6z M60.7,12.6c9.7,10.4,9.7,25.5,0,35.9c-2.4,2.6,1.5,6.4,3.8,3.8c11.7-12.6,11.7-31,0-43.6
		C62.2,6.2,58.4,10.1,60.7,12.6L60.7,12.6z M52.3,19.7c5.9,6.4,5.9,15.4,0,21.7c-2.4,2.6,1.5,6.4,3.8,3.8c7.9-8.6,7.9-20.8,0-29.4
		C53.8,13.3,49.9,17.2,52.3,19.7L52.3,19.7z"/>
</g>
<g class="st0">
	<path class="st1" d="M54.6,4.6v52c0,4.7-5.6,7.2-9.1,4L28.1,44.8H13.8c-3,0-5.4-2.4-5.4-5.4V21.8c0-3,2.4-5.4,5.4-5.4h14.3
		L45.6,0.6C49.1-2.6,54.6-0.1,54.6,4.6z M62,19.7c5.9,6.4,5.9,15.4,0,21.7c-2.4,2.6,1.5,6.4,3.8,3.8c7.9-8.6,7.9-20.8,0-29.4
		C63.5,13.3,59.7,17.2,62,19.7L62,19.7z"/>
</g>
<g class="st0">
	<path class="st1" d="M46.4,4.6v52c0,4.7-5.6,7.2-9.1,4L19.9,44.8H5.6c-3,0-5.4-2.4-5.4-5.4V21.8c0-3,2.4-5.4,5.4-5.4h14.3L37.4,0.6
		C40.9-2.6,46.4-0.1,46.4,4.6z"/>
	<path class="st1" d="M82.5,40.2c-3.7-3.7-5.9-5.9-9.6-9.6c3.7-3.7,5.9-5.9,9.6-9.6c2.1-2.1-1.2-5.4-3.3-3.3
		c-3.7,3.7-5.9,5.9-9.6,9.6c-3.7-3.7-5.9-5.9-9.6-9.6c-2.1-2.1-5.4,1.2-3.3,3.3c3.7,3.7,5.9,5.9,9.6,9.6c-3.7,3.7-5.9,5.9-9.6,9.6
		c-2.1,2.1,1.2,5.4,3.3,3.3c3.7-3.7,5.9-5.9,9.6-9.6c3.7,3.7,5.9,5.9,9.6,9.6C81.3,45.6,84.6,42.3,82.5,40.2z"/>
</g>
<g class="st0">
	<path class="st1" d="M77.2,24c-9.5,0-19,0-28.5,0c0-9.5,0-19,0-28.5c0-8.5-13.1-8.5-13.1,0c0,9.5,0,19,0,28.5c-9.5,0-19,0-28.5,0
		c-8.5,0-8.5,13.1,0,13.1c9.5,0,19,0,28.5,0c0,9.5,0,19,0,28.5c0,8.5,13.1,8.5,13.1,0c0-9.5,0-19,0-28.5c9.5,0,19,0,28.5,0
		C85.6,37.2,85.6,24,77.2,24z"/>
</g>
<g class="st0">
	<g class="st1">
		<path d="M7,37.2c23.4,0,46.8,0,70.1,0c8.5,0,8.5-13.1,0-13.1c-23.4,0-46.8,0-70.1,0C-1.4,24-1.4,37.2,7,37.2L7,37.2z"/>
	</g>
</g>
<g class="st0">
	<path class="st1" d="M71.5,50.8C64.8,44,58.1,37.3,51.4,30.6c6.7-6.7,13.4-13.4,20.2-20.2c6-6-3.3-15.3-9.3-9.3
		c-6.8,6.8-13.5,13.5-20.2,20.2C35.4,14.6,28.7,7.9,21.9,1.2c-6-6-15.3,3.3-9.3,9.3c6.8,6.7,13.5,13.4,20.2,20.1
		C26.1,37.3,19.4,44,12.7,50.8c-6,6,3.3,15.3,9.3,9.3c6.7-6.8,13.4-13.5,20.1-20.2c6.7,6.7,13.4,13.4,20.2,20.2
		C68.2,66,77.5,56.7,71.5,50.8z"/>
</g>
</svg>
