<?xml version="1.0" encoding="utf-8"?>
<!-- Generator: Adobe Illustrator 24.3.0, SVG Export Plug-In . SVG Version: 6.00 Build 0)  -->
<svg version="1.1" id="Layer_1" xmlns="http://www.w3.org/2000/svg" xmlns:xlink="http://www.w3.org/1999/xlink" x="0px" y="0px"
	 viewBox="0 0 49 50.4" style="enable-background:new 0 0 49 50.4;" xml:space="preserve">
<style type="text/css">
	.st0{fill-rule:evenodd;clip-rule:evenodd;fill:#B2B2AB;}
</style>
<desc>Created with Sketch.</desc>
<g>
	<g>
		<path class="st0" d="M16.5,6.2v10l0,0c0,0.6,0.4,1,1,1h14l0,0c0.6,0,1-0.4,1-1v-10l0,0c0-0.6,0.4-1,1-1h1.8l0,0
			c0.8,0,1.6,0.3,2.1,0.9l6.2,6.2l0,0c0.6,0.6,0.9,1.3,0.9,2.1v27.8l0,0c0,1.7-1.3,3-3,3h-34l0,0c-1.7,0-3-1.3-3-3v-34l0,0
			c0-1.7,1.3-3,3-3h8l0,0C16,5.2,16.5,5.7,16.5,6.2z M25.5,5.2h2l0,0c0.6,0,1,0.4,1,1v6l0,0c0,0.6-0.4,1-1,1h-2l0,0
			c-0.6,0-1-0.4-1-1v-6l0,0C24.5,5.7,24.9,5.2,25.5,5.2z M17.5,31.2L17.5,31.2L17.5,31.2c0,3.9,3.1,7,7,7l0,0l0,0c3.9,0,7-3.1,7-7
			l0,0l0,0c0-3.9-3.1-7-7-7l0,0l0,0C20.6,24.2,17.5,27.3,17.5,31.2z"/>
	</g>
</g>
</svg>
