<?xml version="1.0" encoding="utf-8"?>
<!-- Generator: Adobe Illustrator 24.3.0, SVG Export Plug-In . SVG Version: 6.00 Build 0)  -->
<svg version="1.1" id="Layer_1" xmlns="http://www.w3.org/2000/svg" xmlns:xlink="http://www.w3.org/1999/xlink" x="0px" y="0px"
	 viewBox="0 0 64 62.5" style="enable-background:new 0 0 64 62.5;" xml:space="preserve">
<style type="text/css">
	.st0{fill-rule:evenodd;clip-rule:evenodd;}
</style>
<path class="st0" d="M24,5.3c-9.9,0-18,8.1-18,18v8v8c0,9.9,8.1,18,18,18h8h8c9.9,0,18-8.1,18-18v-8v-8c0-9.9-8.1-18-18-18h-8H24z
	 M10,23.3c0-7.7,6.3-14,14-14h8h8c7.7,0,14,6.3,14,14v8v8c0,7.7-6.3,14-14,14h-8h-8c-7.7,0-14-6.3-14-14v-8V23.3z"/>
</svg>
