<?xml version="1.0" encoding="utf-8"?>
<!-- Generator: Adobe Illustrator 24.3.0, SVG Export Plug-In . SVG Version: 6.00 Build 0)  -->
<svg version="1.1"
	 id="Layer_1" xmlns:cc="http://creativecommons.org/ns#" xmlns:dc="http://purl.org/dc/elements/1.1/" xmlns:inkscape="http://www.inkscape.org/namespaces/inkscape" xmlns:rdf="http://www.w3.org/1999/02/22-rdf-syntax-ns#" xmlns:sodipodi="http://sodipodi.sourceforge.net/DTD/sodipodi-0.dtd" xmlns:svg="http://www.w3.org/2000/svg"
	 xmlns="http://www.w3.org/2000/svg" xmlns:xlink="http://www.w3.org/1999/xlink" x="0px" y="0px" viewBox="0 0 100 99.3"
	 style="enable-background:new 0 0 100 99.3;" xml:space="preserve">
<style type="text/css">
	.st0{fill-rule:evenodd;clip-rule:evenodd;fill:#B2B2AB;}
</style>
<g transform="translate(0,-952.36218)">
	<path class="st0" d="M44.2,958c-1,0.1-1.8,1-1.8,2v35.5H8c-1.1,0-2,0.9-2,2v10.1c0,1.1,0.9,2,2,2h34.4v34.4c0,1.1,0.9,2,2,2h11.1
		c1.1,0,2-0.9,2-2v-34.4H92c1.1,0,2-0.9,2-2v-10.1c0-1.1-0.9-2-2-2H57.6V960c0-1.1-0.9-2-2-2H44.4C44.4,958,44.3,958,44.2,958
		L44.2,958z"/>
</g>
</svg>
